<svg width="32" height="32" viewBox="0 0 32 32" fill="none" xmlns="http://www.w3.org/2000/svg">
<path d="M15.1623 13.8718C14.4633 13.8718 13.78 14.079 13.1988 14.4673C12.6176 14.8556 12.1647 15.4076 11.8972 16.0533C11.6297 16.6991 11.5597 17.4097 11.696 18.0952C11.8324 18.7808 12.1689 19.4105 12.6632 19.9047C13.1574 20.399 13.7871 20.7356 14.4727 20.872C15.1582 21.0083 15.8688 20.9384 16.5146 20.6709C17.1603 20.4034 17.7123 19.9505 18.1006 19.3693C18.489 18.7881 18.6962 18.1049 18.6963 17.4059C18.6952 16.4689 18.3225 15.5706 17.66 14.9081C16.9975 14.2456 16.0992 13.8729 15.1623 13.8718ZM15.1623 19.9398C14.6611 19.9398 14.1711 19.7912 13.7544 19.5128C13.3376 19.2343 13.0128 18.8386 12.821 18.3755C12.6292 17.9125 12.579 17.403 12.6768 16.9114C12.7746 16.4198 13.016 15.9683 13.3704 15.6139C13.7248 15.2595 14.1763 15.0182 14.6679 14.9204C15.1594 14.8226 15.669 14.8728 16.132 15.0646C16.595 15.2564 16.9908 15.5813 17.2692 15.998C17.5477 16.4147 17.6963 16.9047 17.6963 17.4059C17.6955 18.0777 17.4282 18.7218 16.9532 19.1968C16.4781 19.6719 15.8341 19.9391 15.1623 19.9398ZM31.3868 17.4688C31.3858 17.4669 31.385 17.465 31.384 17.4631C31.3835 17.4623 31.3829 17.4615 31.3825 17.4607C31.3031 17.3228 31.1885 17.2085 31.0504 17.1295L27.7799 15.241C27.6434 15.1611 27.4881 15.119 27.3299 15.119C27.1718 15.119 27.0164 15.1611 26.8799 15.241L26.7479 15.3172V13.9366C27.4661 13.7591 28.1231 13.3912 28.6498 12.8718C29.0335 12.5015 29.3388 12.0578 29.5476 11.5671C29.7565 11.0764 29.8645 10.5488 29.8653 10.0155V8.92189C29.8653 8.90381 29.8643 8.88574 29.8623 8.86777C29.8623 8.8657 29.8616 8.86364 29.8613 8.86152C29.859 8.84259 29.8556 8.8238 29.8511 8.80527C29.85 8.80073 29.8488 8.79621 29.8476 8.7917C29.8424 8.7726 29.8362 8.75381 29.8288 8.73545L29.8273 8.73133C29.8191 8.71156 29.8096 8.69236 29.7989 8.67383C29.7968 8.67014 29.7944 8.66652 29.7923 8.66289C29.7826 8.64688 29.772 8.63144 29.7606 8.61664C29.7591 8.6147 29.7579 8.61252 29.7564 8.61039L24.7084 2.26114C24.6616 2.20224 24.602 2.15466 24.5343 2.12196C24.4665 2.08926 24.3922 2.07227 24.317 2.07227H24.3141L10.7776 2.15052H10.7753L6.30656 2.17633C6.23457 2.17674 6.16351 2.1927 6.09825 2.2231C6.03299 2.25351 5.97506 2.29766 5.92844 2.35252L0.619062 8.59808L0.6175 8.6002C0.603717 8.61669 0.591004 8.63403 0.579438 8.65214C0.577063 8.65589 0.574875 8.6597 0.572563 8.66345C0.562647 8.67978 0.553674 8.69666 0.545688 8.71402C0.544563 8.71652 0.543187 8.71889 0.542125 8.72139C0.533497 8.74112 0.526169 8.76139 0.520187 8.78208C0.519125 8.7857 0.518375 8.78939 0.517375 8.79302C0.512786 8.81022 0.509156 8.82766 0.5065 8.84527C0.505688 8.8502 0.504813 8.85514 0.504188 8.86008C0.501525 8.88058 0.500127 8.90122 0.5 8.92189V10.0149C0.501356 10.999 0.861525 11.9489 1.51302 12.6866C2.16451 13.4242 3.06262 13.899 4.03906 14.0219V25.8554H3.00956C2.46975 25.8554 1.95204 26.0698 1.57034 26.4515C1.18863 26.8332 0.974188 27.351 0.974188 27.8908C0.974188 28.4306 1.18863 28.9483 1.57034 29.33C1.95204 29.7117 2.46975 29.9261 3.00956 29.9261H27.315C27.8548 29.9261 28.3725 29.7117 28.7542 29.33C29.1359 28.9483 29.3504 28.4306 29.3504 27.8908C29.3504 27.351 29.1359 26.8332 28.7542 26.4515C28.3725 26.0698 27.8548 25.8554 27.315 25.8554H26.7481V24.2763L26.8801 24.3525C27.0166 24.4324 27.1719 24.4745 27.3301 24.4745C27.4882 24.4745 27.6436 24.4324 27.7801 24.3525L31.0503 22.4642C31.1878 22.386 31.3019 22.2726 31.381 22.1356C31.4601 21.9987 31.5013 21.8432 31.5003 21.685V17.9086C31.5008 17.7547 31.4617 17.6032 31.3868 17.4688ZM27.3299 16.136L29.9884 17.6708L27.4594 19.0856L24.7003 17.6544L27.3299 16.136ZM24.1596 21.6271V18.5004L26.9596 19.953L26.8694 23.1917L24.1596 21.6271ZM25.7743 13.054C24.974 13.0516 24.2068 12.7346 23.6382 12.1714C23.0696 11.6082 22.7453 10.8439 22.7353 10.0437C22.7353 10.0403 22.7348 10.037 22.7347 10.0336C22.7347 10.0274 22.7352 10.0211 22.7352 10.0149V9.42189H28.8654V10.0149C28.8654 11.6623 27.4499 13.054 25.7743 13.054ZM19.0044 3.10302C19.437 5.21889 20.1476 7.0017 21.1228 8.42177H9.08694C10.0552 7.01164 10.7629 5.24427 11.1963 3.14802L19.0044 3.10302ZM8.57856 10.0149V9.42189H14.6569V10.0149C14.6585 10.8191 14.3412 11.5912 13.7746 12.1619C13.2081 12.7327 12.4384 13.0556 11.6342 13.0599C10.83 13.0643 10.0569 12.7497 9.48415 12.1851C8.91145 11.6205 8.58587 10.8519 8.57875 10.0478C8.57875 10.0438 8.57819 10.04 8.57806 10.036C8.57813 10.0289 8.57856 10.022 8.57856 10.0149ZM15.6569 10.0149V9.42189H21.7352V10.0149C21.7346 10.817 21.4169 11.5863 20.8515 12.1551C20.286 12.724 19.5187 13.0462 18.7166 13.0517C17.9145 13.0571 17.1429 12.7453 16.5698 12.1841C15.9967 11.623 15.6686 10.8581 15.6571 10.0561C15.6571 10.0512 15.6564 10.0465 15.6563 10.0416C15.6566 10.0327 15.6569 10.0241 15.6569 10.0149ZM28.3291 8.42189H22.3683C21.2833 7.07814 20.496 5.29064 20.0245 3.09689L24.0771 3.07345L28.3291 8.42189ZM6.54163 3.17502L10.1729 3.15402C9.69994 5.32133 8.91725 7.08995 7.84163 8.42189H2.08156L6.54163 3.17502ZM1.50031 10.0149V9.42189H7.57856V10.0149C7.57856 10.8209 7.25837 11.5939 6.68842 12.1639C6.11848 12.7338 5.34546 13.054 4.53944 13.054C3.73341 13.054 2.9604 12.7338 2.39045 12.1639C1.82051 11.5939 1.50031 10.8209 1.50031 10.0149ZM28.3503 27.8906C28.35 28.1651 28.2408 28.4283 28.0467 28.6224C27.8526 28.8165 27.5894 28.9257 27.3149 28.926H3.00956C2.73496 28.926 2.47161 28.8169 2.27744 28.6228C2.08327 28.4286 1.97419 28.1652 1.97419 27.8906C1.97419 27.616 2.08327 27.3527 2.27744 27.1585C2.47161 26.9644 2.73496 26.8553 3.00956 26.8553H27.315C27.5895 26.8556 27.8526 26.9648 28.0467 27.1589C28.2408 27.353 28.35 27.6162 28.3503 27.8906ZM19.9718 25.8554H18.6413V25.6541C18.6413 25.5215 18.5886 25.3944 18.4949 25.3006C18.4011 25.2068 18.2739 25.1541 18.1413 25.1541C18.0087 25.1541 17.8815 25.2068 17.7878 25.3006C17.694 25.3944 17.6413 25.5215 17.6413 25.6541V25.8554H12.6832V25.6541C12.6832 25.5215 12.6305 25.3944 12.5367 25.3006C12.443 25.2068 12.3158 25.1541 12.1832 25.1541C12.0506 25.1541 11.9234 25.2068 11.8296 25.3006C11.7359 25.3944 11.6832 25.5215 11.6832 25.6541V25.8554H10.3528V25.582C10.3537 24.7107 10.7003 23.8753 11.3164 23.2592C11.9325 22.6431 12.7679 22.2965 13.6393 22.2955H16.6853C17.5566 22.2965 18.392 22.6431 19.0081 23.2592C19.6243 23.8753 19.9708 24.7107 19.9718 25.582V25.8554ZM25.7481 25.8554H20.9718V25.582C20.9706 24.4455 20.5185 23.356 19.7149 22.5523C18.9113 21.7487 17.8218 21.2967 16.6853 21.2954H13.6393C12.5028 21.2967 11.4132 21.7487 10.6096 22.5523C9.80605 23.3559 9.35403 24.4454 9.35275 25.5819V25.8554H5.03938V14.022C5.67306 13.9422 6.27886 13.7135 6.80724 13.3547C7.33562 12.9959 7.77157 12.5172 8.07944 11.9576C8.42727 12.5924 8.93944 13.1219 9.56226 13.4907C10.1851 13.8596 10.8956 14.0541 11.6195 14.0539C12.3433 14.0538 13.0538 13.859 13.6765 13.4899C14.2991 13.1208 14.8111 12.591 15.1586 11.9561C15.506 12.591 16.0178 13.1208 16.6404 13.4899C17.2629 13.859 17.9733 14.0538 18.6971 14.0539C19.4208 14.0541 20.1313 13.8595 20.7539 13.4906C21.3766 13.1217 21.8886 12.5921 22.2362 11.9573C22.583 12.5868 23.091 13.1127 23.7082 13.4811C24.3253 13.8494 25.0294 14.0469 25.7481 14.0533V15.8946L23.6096 17.1293C23.483 17.2019 23.3759 17.3044 23.2978 17.4276C23.2949 17.4319 23.2923 17.4364 23.2896 17.4408C23.2834 17.4507 23.2776 17.4608 23.272 17.471C23.2712 17.4725 23.2703 17.4738 23.2694 17.4753L23.2682 17.4781C23.1965 17.6102 23.1592 17.7583 23.1596 17.9086V21.685C23.1587 21.8432 23.1999 21.9987 23.279 22.1356C23.3581 22.2726 23.4722 22.386 23.6096 22.4642L25.7481 23.6991V25.8554ZM27.8711 23.1453L27.9601 19.9515L30.5003 18.5304V21.6273L27.8711 23.1453Z" fill="#48684C"/>
</svg>
